<?xml version="1.0" encoding="utf-8"?>
<!-- Generator: Adobe Illustrator 27.0.1, SVG Export Plug-In . SVG Version: 6.00 Build 0)  -->
<svg version="1.1" id="_レイヤー_2" xmlns="http://www.w3.org/2000/svg" xmlns:xlink="http://www.w3.org/1999/xlink" x="0px"
	 y="0px" viewBox="0 0 135.2 135.2" style="enable-background:new 0 0 135.2 135.2;" xml:space="preserve">
<style type="text/css">
	.st0{fill:#333333;}
</style>
<g id="_レイヤー_1-2">
	<path class="st0" d="M5,0h47.6c2.8,0,5,2.2,5,5v47.6c0,2.8-2.2,5-5,5H5c-2.8,0-5-2.2-5-5V5C0,2.2,2.2,0,5,0z"/>
	<path class="st0" d="M82.6,0h47.6c2.8,0,5,2.2,5,5v47.6c0,2.8-2.2,5-5,5H82.6c-2.8,0-5-2.2-5-5V5C77.6,2.2,79.8,0,82.6,0z"/>
	<path class="st0" d="M5,77.6h47.6c2.8,0,5,2.2,5,5v47.6c0,2.8-2.2,5-5,5H5c-2.8,0-5-2.2-5-5V82.6C0,79.8,2.2,77.6,5,77.6z"/>
	<path class="st0" d="M82.6,77.6h47.6c2.8,0,5,2.2,5,5v47.6c0,2.8-2.2,5-5,5H82.6c-2.8,0-5-2.2-5-5V82.6
		C77.6,79.8,79.8,77.6,82.6,77.6z"/>
</g>
</svg>
