<?xml version="1.0" encoding="utf-8"?>
<!-- Generator: Adobe Illustrator 27.0.1, SVG Export Plug-In . SVG Version: 6.00 Build 0)  -->
<svg version="1.1" id="_レイヤー_2" xmlns="http://www.w3.org/2000/svg" xmlns:xlink="http://www.w3.org/1999/xlink" x="0px"
	 y="0px" viewBox="0 0 146.8 131.1" style="enable-background:new 0 0 146.8 131.1;" xml:space="preserve">
<style type="text/css">
	.st0{fill:#333333;}
	.st1{fill:#FFFFFF;}
</style>
<path class="st0" d="M73.4,0C32.9,0,0,27.2,0,60.7c0,21.3,13.3,40,33.3,50.9c0.5,1.1,0.8,2.1,0.8,2.8c0.2,2.8-1.2,7.3-8.2,13.9
	s12.9-0.6,17.5-3.4c4.7-2.8,5-4,9.8-4.6c2.1-0.3,4.5-0.1,7,0.1c4.3,0.7,8.7,1,13.2,1c40.6,0,73.4-27.2,73.4-60.7S114,0,73.4,0z"/>
<g>
	<circle class="st1" cx="41.3" cy="61" r="11.6"/>
	<circle class="st1" cx="73.4" cy="61" r="11.6"/>
	<circle class="st1" cx="106" cy="61" r="11.6"/>
</g>
</svg>
