<?xml version="1.0" encoding="UTF-8"?><svg id="_レイヤー_2" xmlns="http://www.w3.org/2000/svg" viewBox="0 0 146.84 131.07"><defs><style>.cls-1{fill:#fff;}.cls-2{fill:#333;}</style></defs><g id="_レイヤー_1-2"><path class="cls-1" d="M73.42,0C32.87,0,0,27.19,0,60.73c0,21.3,13.26,40.02,33.32,50.86,.47,1.1,.8,2.1,.84,2.8,.15,2.79-1.24,7.28-8.21,13.94-6.97,6.66,12.86-.62,17.5-3.41,4.65-2.79,4.96-3.96,9.76-4.58,2.14-.28,4.53-.13,6.99,.11,4.29,.65,8.71,1,13.22,1,40.55,0,73.42-27.19,73.42-60.73S113.97,0,73.42,0Z"/><circle class="cls-2" cx="41.33" cy="60.98" r="11.56"/><circle class="cls-2" cx="73.42" cy="60.98" r="11.56"/><circle class="cls-2" cx="105.99" cy="60.98" r="11.56"/></g></svg>